<?xml version="1.0" encoding="UTF-8"?>
<svg width="156px" height="156px" viewBox="0 0 156 156" version="1.1" xmlns="http://www.w3.org/2000/svg" xmlns:xlink="http://www.w3.org/1999/xlink">
    <!-- Generator: Sketch 55.1 (78136) - https://sketchapp.com -->
    <title>Group 2</title>
    <desc>Created with Sketch.</desc>
    <defs>
        <rect id="path-1" x="0" y="0" width="96" height="96"></rect>
    </defs>
    <g id="Page-1" stroke="none" stroke-width="1" fill="none" fill-rule="evenodd">
        <g id="Dark-Copy-2" transform="translate(-91.000000, -78.000000)">
            <g id="Group-2" transform="translate(91.000000, 78.000000)">
                <circle id="Oval" fill="#F77754" cx="78" cy="78" r="78"></circle>
                <g id="exclamation-triangle" transform="translate(26.000000, 34.000000)">
                    <mask id="mask-2" fill="white">
                        <use xlink:href="#path-1"></use>
                    </mask>
                    <g id="Mask"></g>
                    <g mask="url(#mask-2)" fill="#FFFFFF" fill-rule="nonzero" id="Shape">
                        <g transform="translate(58.809118, 36.966382) rotate(45.000000) translate(-58.809118, -36.966382) translate(15.809118, -12.033618)">
                            <path d="M46.9304239,34.7072387 L77.1236633,90.1646191 C78.0409926,91.8188876 78.0147832,93.473156 77.0450351,95.1274245 C76.5994751,95.8889132 75.9901063,96.4928524 75.2169288,96.9392423 C74.4437512,97.3856322 73.6116025,97.6088272 72.7204825,97.6088272 L12.3340037,97.6088272 C11.4428838,97.6088272 10.6107351,97.3856322 9.83755749,96.9392423 C9.06437992,96.4928524 8.45501116,95.8889132 8.0094512,95.1274245 C7.03970306,93.473156 7.01349365,91.8188876 7.93082297,90.1646191 L38.1240624,34.7072387 C38.5696223,33.8932336 39.1855435,33.249907 39.9718257,32.7772588 C40.758108,32.3046107 41.6099138,32.0682866 42.5272431,32.0682866 C43.4445725,32.0682866 44.2963783,32.3046107 45.0826605,32.7772588 C45.8689428,33.249907 46.4848639,33.8932336 46.9304239,34.7072387 Z"></path>
                            <path d="M48.1164054,3.2195215 L84.7396865,70.8775257 C85.852373,72.8957332 85.820582,74.9139407 84.6443134,76.9321482 C84.1038657,77.8611643 83.3647239,78.5979703 82.4268882,79.1425659 C81.4890524,79.6871616 80.4796868,79.9594595 79.3987913,79.9594595 L6.15222907,79.9594595 C5.07133362,79.9594595 4.06196801,79.6871616 3.12413225,79.1425659 C2.1862965,78.5979703 1.44715475,77.8611643 0.906707029,76.9321482 C-0.269561549,74.9139407 -0.301352592,72.8957332 0.811333901,70.8775257 L37.434615,3.2195215 C37.9750628,2.22643527 38.7221523,1.44157679 39.6758835,0.864946076 C40.6296148,0.288315359 41.6628237,2.84217094e-14 42.7755102,2.84217094e-14 C43.8881967,2.84217094e-14 44.9214056,0.288315359 45.8751369,0.864946076 C46.8288681,1.44157679 47.5759576,2.22643527 48.1164054,3.2195215 Z" opacity="0.548688616"></path>
                        </g>
                    </g>
                </g>
            </g>
        </g>
    </g>
</svg>